<svg xmlns="http://www.w3.org/2000/svg" viewBox="0 0 375 812" fill="none">
  <title>Wireframe Mobile - Resultats de recherche</title>
  <rect width="375" height="812" fill="#f8f8f8"/>
  <text x="187" y="20" text-anchor="middle" font-family="Arial" font-size="10" fill="#333" font-weight="bold">WIREFRAME MOBILE (375px) — Resultats</text>

  <!-- Status bar -->
  <rect x="0" y="28" width="375" height="20" fill="#eee"/>
  <text x="187" y="42" text-anchor="middle" font-family="Arial" font-size="9" fill="#999">9:41</text>

  <!-- NAVBAR -->
  <rect x="0" y="48" width="375" height="50" fill="#ddd" stroke="#bbb"/>
  <text x="20" y="78" font-family="Arial" font-size="16" fill="#333" font-weight="bold">EcoRide</text>
  <rect x="330" y="62" width="30" height="3" fill="#555"/>
  <rect x="330" y="69" width="30" height="3" fill="#555"/>
  <rect x="330" y="76" width="30" height="3" fill="#555"/>

  <!-- Search Header -->
  <text x="20" y="125" font-family="Arial" font-size="16" fill="#333" font-weight="bold">Resultats</text>
  <text x="20" y="145" font-family="Arial" font-size="11" fill="#777">Paris → Lyon · 25/02/2026</text>
  <text x="290" y="125" font-family="Arial" font-size="10" fill="#2E7D32">Filtres ▼</text>
  <text x="20" y="168" font-family="Arial" font-size="10" fill="#555">3 covoiturages trouves</text>

  <!-- Result Card 1 -->
  <rect x="15" y="185" width="345" height="140" rx="10" fill="#fff" stroke="#ddd"/>
  <rect x="15" y="185" width="345" height="32" rx="10" fill="#c8e6c9"/>
  <text x="28" y="206" font-family="Arial" font-size="11" fill="#1B5E20">Alice · Electric · ★ 5.0</text>
  <text x="320" y="206" font-family="Arial" font-size="9" fill="#2E7D32">Eco</text>
  <text x="28" y="240" font-family="Arial" font-size="14" fill="#2E7D32" font-weight="bold">Paris → Lyon</text>
  <text x="28" y="260" font-family="Arial" font-size="10" fill="#777">26/02 · 08:30 · 3 places</text>
  <text x="28" y="278" font-family="Arial" font-size="10" fill="#999">Tesla Model 3</text>
  <text x="28" y="310" font-family="Arial" font-size="15" fill="#2E7D32" font-weight="bold">24.00 €/place</text>
  <rect x="270" y="296" width="75" height="26" rx="13" fill="#2E7D32"/>
  <text x="286" y="314" font-family="Arial" font-size="10" fill="#fff">Details</text>

  <!-- Result Card 2 -->
  <rect x="15" y="340" width="345" height="140" rx="10" fill="#fff" stroke="#ddd"/>
  <rect x="15" y="340" width="345" height="32" rx="10" fill="#c8e6c9"/>
  <text x="28" y="361" font-family="Arial" font-size="11" fill="#1B5E20">Lucas · Hybrid · ★ 4.0</text>
  <text x="320" y="361" font-family="Arial" font-size="9" fill="#2E7D32">Eco</text>
  <text x="28" y="395" font-family="Arial" font-size="14" fill="#2E7D32" font-weight="bold">Paris → Lyon</text>
  <text x="28" y="415" font-family="Arial" font-size="10" fill="#777">27/02 · 14:00 · 4 places</text>
  <text x="28" y="433" font-family="Arial" font-size="10" fill="#999">Toyota Prius</text>
  <text x="28" y="465" font-family="Arial" font-size="15" fill="#2E7D32" font-weight="bold">24.00 €/place</text>
  <rect x="270" y="451" width="75" height="26" rx="13" fill="#2E7D32"/>
  <text x="286" y="469" font-family="Arial" font-size="10" fill="#fff">Details</text>

  <!-- Result Card 3 -->
  <rect x="15" y="495" width="345" height="140" rx="10" fill="#fff" stroke="#ddd"/>
  <rect x="15" y="495" width="345" height="32" rx="10" fill="#c8e6c9"/>
  <text x="28" y="516" font-family="Arial" font-size="11" fill="#1B5E20">Alice · Petrol</text>
  <text x="28" y="550" font-family="Arial" font-size="14" fill="#2E7D32" font-weight="bold">Lyon → Paris</text>
  <text x="28" y="570" font-family="Arial" font-size="10" fill="#777">01/03 · 14:00 · 4 places</text>
  <text x="28" y="588" font-family="Arial" font-size="10" fill="#999">Renault Clio</text>
  <text x="28" y="620" font-family="Arial" font-size="15" fill="#2E7D32" font-weight="bold">24.00 €/place</text>
  <rect x="270" y="606" width="75" height="26" rx="13" fill="#2E7D32"/>
  <text x="286" y="624" font-family="Arial" font-size="10" fill="#fff">Details</text>

  <!-- Bottom nav hint -->
  <rect x="15" y="660" width="345" height="35" rx="17" fill="#fff" stroke="#2E7D32"/>
  <text x="187" y="682" text-anchor="middle" font-family="Arial" font-size="11" fill="#2E7D32">Nouvelle recherche</text>

  <!-- Footer -->
  <rect x="0" y="720" width="375" height="60" fill="#1a3a1a"/>
  <text x="20" y="752" font-family="Arial" font-size="12" fill="#8BC34A" font-weight="bold">EcoRide</text>
  <text x="187" y="770" text-anchor="middle" font-family="Arial" font-size="9" fill="#777">© 2026 EcoRide</text>

  <rect x="140" y="798" width="95" height="4" rx="2" fill="#ccc"/>
</svg>
